<svg width="48" height="48" viewBox="0 0 48 48" fill="none" xmlns="http://www.w3.org/2000/svg">
<path d="M16.5097 41C15.5463 41 14.7219 40.6575 14.0364 39.9727C13.351 39.2879 13.0076 38.4636 13.0065 37.5C13.0053 36.5363 13.3486 35.7126 14.0364 35.029C14.7242 34.3453 15.5487 34.0023 16.5097 34C17.4708 33.9976 18.2958 34.3406 18.9848 35.029C19.6737 35.7173 20.0165 36.541 20.013 37.5C20.0094 38.459 19.6667 39.2832 18.9848 39.9727C18.3028 40.6622 17.4778 41.0046 16.5097 41ZM34.0259 41C33.0625 41 32.2381 40.6575 31.5526 39.9727C30.8671 39.2879 30.5238 38.4636 30.5227 37.5C30.5215 36.5363 30.8648 35.7126 31.5526 35.029C32.2404 34.3453 33.0648 34.0023 34.0259 34C34.9869 33.9976 35.812 34.3406 36.5009 35.029C37.1899 35.7173 37.5326 36.541 37.5291 37.5C37.5256 38.459 37.1829 39.2832 36.5009 39.9727C35.819 40.6622 34.994 41.0046 34.0259 41ZM13.3568 9.5H39.1932C39.8646 9.5 40.3755 9.79924 40.7258 10.3977C41.0762 10.9962 41.0908 11.6012 40.7696 12.2125L34.5514 23.4125C34.2302 23.9958 33.7999 24.4479 33.2604 24.7687C32.7209 25.0896 32.1295 25.25 31.486 25.25H18.4365L16.5097 28.75H35.7775C36.2738 28.75 36.6901 28.918 37.0264 29.254C37.3627 29.59 37.5303 30.0053 37.5291 30.5C37.528 30.9946 37.3598 31.4105 37.0247 31.7477C36.6895 32.0849 36.2738 32.2523 35.7775 32.25H16.5097C15.196 32.25 14.2034 31.6742 13.532 30.5227C12.8605 29.3712 12.8313 28.2261 13.4444 27.0875L15.8091 22.8L9.50324 9.5H7.75162C7.25533 9.5 6.83961 9.332 6.50447 8.996C6.16933 8.66 6.00117 8.24466 6.00001 7.75C5.99884 7.25533 6.16699 6.84 6.50447 6.504C6.84195 6.168 7.25767 6 7.75162 6H10.598C10.9191 6 11.2257 6.0875 11.5176 6.2625C11.8095 6.4375 12.0285 6.68542 12.1745 7.00625L13.3568 9.5Z" fill="#F4F4F4"/>
</svg>
