<svg width="132" height="58" viewBox="0 0 132 58" fill="none" xmlns="http://www.w3.org/2000/svg">
<path d="M119.625 10.7321H116.815C115.513 9.96336 114.13 9.34248 112.69 8.88105C108.152 7.38058 102.161 6.60714 94.875 6.60714C87.5892 6.60714 81.5977 7.38058 77.0705 8.88105C73.4456 10.0902 71.8498 11.4231 71.3341 11.9413C69.6695 11.1453 67.8477 10.7322 66.0026 10.7322C64.1574 10.7322 62.3357 11.1453 60.671 11.9413C60.1554 11.4257 58.5595 10.0902 54.9347 8.88105C50.4023 7.38058 44.4108 6.60714 37.125 6.60714C29.8392 6.60714 23.8477 7.38058 19.3205 8.88105C17.8808 9.34248 16.4972 9.96336 15.1955 10.7321H12.375C11.281 10.7321 10.2318 11.1667 9.45818 11.9403C8.6846 12.7139 8.25 13.7631 8.25 14.8571C8.25 15.9512 8.6846 17.0004 9.45818 17.774C10.2318 18.5475 11.281 18.9821 12.375 18.9821H12.4188C12.6766 30.7023 14.0791 37.7457 17.0878 42.7602C18.9725 45.9977 21.8618 48.5321 25.3172 49.9789C28.4702 51.3299 32.3348 51.9873 37.125 51.9873C43.3512 51.9873 52.2019 51.0308 57.1622 42.7653C59.6578 38.6042 61.0526 33.0484 61.5991 24.5844C61.7808 24.113 61.8743 23.6123 61.875 23.1071C61.875 22.0131 62.3096 20.9639 63.0832 20.1903C63.8568 19.4167 64.906 18.9821 66 18.9821C67.094 18.9821 68.1432 19.4167 68.9168 20.1903C69.6904 20.9639 70.125 22.0131 70.125 23.1071C70.1264 23.6106 70.2198 24.1095 70.4009 24.5793C70.9474 33.0432 72.3422 38.5991 74.8378 42.7602C76.7225 45.9977 79.6118 48.5321 83.0672 49.9789C86.2202 51.3299 90.0848 51.9873 94.875 51.9873C101.101 51.9873 109.952 51.0308 114.912 42.7653C117.921 37.7509 119.329 30.7075 119.581 18.9873H119.625C120.719 18.9873 121.768 18.5527 122.542 17.7791C123.315 17.0055 123.75 15.9563 123.75 14.8623C123.75 13.7683 123.315 12.7191 122.542 11.9455C121.768 11.1719 120.719 10.7373 119.625 10.7373V10.7321Z" fill="url(#paint0_linear_233_61)"/>
<path d="M21.1496 47.216C20.2856 47.216 19.5176 47.048 18.8456 46.712C18.1736 46.376 17.6036 45.95 17.1356 45.434L17.6756 44.858C18.1076 45.338 18.6236 45.728 19.2236 46.028C19.8236 46.316 20.4656 46.46 21.1496 46.46C22.0616 46.46 22.7816 46.238 23.3096 45.794C23.8376 45.35 24.1016 44.78 24.1016 44.084C24.1016 43.592 24.0056 43.196 23.8136 42.896C23.6216 42.596 23.3636 42.35 23.0396 42.158C22.7276 41.954 22.3736 41.768 21.9776 41.6L20.1776 40.79C19.8416 40.634 19.4816 40.442 19.0976 40.214C18.7256 39.974 18.4076 39.668 18.1436 39.296C17.8916 38.912 17.7656 38.426 17.7656 37.838C17.7656 37.262 17.9156 36.758 18.2156 36.326C18.5156 35.882 18.9236 35.54 19.4396 35.3C19.9676 35.048 20.5616 34.922 21.2216 34.922C21.9296 34.922 22.5656 35.066 23.1296 35.354C23.6936 35.63 24.1556 35.96 24.5156 36.344L24.0476 36.884C23.6996 36.524 23.2916 36.236 22.8236 36.02C22.3556 35.792 21.8216 35.678 21.2216 35.678C20.4416 35.678 19.8056 35.87 19.3136 36.254C18.8336 36.638 18.5936 37.154 18.5936 37.802C18.5936 38.258 18.7016 38.63 18.9176 38.918C19.1456 39.206 19.4156 39.44 19.7276 39.62C20.0516 39.8 20.3576 39.956 20.6456 40.088L22.4456 40.88C22.8896 41.072 23.2976 41.3 23.6696 41.564C24.0536 41.816 24.3596 42.14 24.5876 42.536C24.8276 42.92 24.9476 43.418 24.9476 44.03C24.9476 44.63 24.7916 45.176 24.4796 45.668C24.1676 46.148 23.7236 46.526 23.1476 46.802C22.5836 47.078 21.9176 47.216 21.1496 47.216ZM31.3823 47.216C30.8783 47.216 30.3863 47.144 29.9063 47C29.4383 46.844 29.0123 46.586 28.6283 46.226C28.2563 45.866 27.9563 45.38 27.7283 44.768C27.5123 44.144 27.4043 43.37 27.4043 42.446V35.138H28.2323V42.356C28.2323 43.4 28.3763 44.222 28.6643 44.822C28.9643 45.422 29.3543 45.848 29.8343 46.1C30.3143 46.34 30.8303 46.46 31.3823 46.46C31.9583 46.46 32.4923 46.34 32.9843 46.1C33.4763 45.848 33.8723 45.422 34.1723 44.822C34.4723 44.222 34.6223 43.4 34.6223 42.356V35.138H35.3963V42.446C35.3963 43.37 35.2823 44.144 35.0543 44.768C34.8383 45.38 34.5383 45.866 34.1543 46.226C33.7823 46.586 33.3563 46.844 32.8763 47C32.3963 47.144 31.8983 47.216 31.3823 47.216ZM38.8485 47V35.138H39.7125L44.7165 43.508L46.0485 45.866H46.1205C46.1085 45.29 46.0845 44.714 46.0485 44.138C46.0245 43.562 46.0125 42.986 46.0125 42.41V35.138H46.8045V47H45.9405L40.9365 38.63L39.6045 36.272H39.5325C39.5565 36.836 39.5805 37.394 39.6045 37.946C39.6285 38.498 39.6405 39.062 39.6405 39.638V47H38.8485ZM54.6299 47.216C53.6099 47.216 52.7159 46.964 51.9479 46.46C51.1919 45.956 50.5979 45.242 50.1659 44.318C49.7459 43.394 49.5359 42.302 49.5359 41.042C49.5359 39.782 49.7519 38.696 50.1839 37.784C50.6279 36.872 51.2399 36.17 52.0199 35.678C52.8119 35.174 53.7299 34.922 54.7739 34.922C55.5779 34.922 56.2379 35.078 56.7539 35.39C57.2819 35.69 57.7019 36.008 58.0139 36.344L57.5279 36.902C57.2279 36.566 56.8559 36.278 56.4119 36.038C55.9799 35.798 55.4399 35.678 54.7919 35.678C53.8919 35.678 53.1119 35.9 52.4519 36.344C51.7919 36.776 51.2819 37.394 50.9219 38.198C50.5739 38.99 50.3999 39.938 50.3999 41.042C50.3999 42.134 50.5679 43.088 50.9039 43.904C51.2399 44.72 51.7259 45.35 52.3619 45.794C53.0099 46.238 53.7839 46.46 54.6839 46.46C55.2239 46.46 55.7279 46.382 56.1959 46.226C56.6759 46.07 57.0599 45.848 57.3479 45.56V41.87H54.5039V41.168H58.1399V45.866C57.7679 46.262 57.2819 46.586 56.6819 46.838C56.0939 47.09 55.4099 47.216 54.6299 47.216ZM61.1903 47V35.138H62.0183V46.28H67.4903V47H61.1903ZM71.3713 40.016L70.6153 42.23H74.8273L74.0713 40.016C73.8313 39.308 73.6033 38.63 73.3873 37.982C73.1713 37.334 72.9613 36.644 72.7573 35.912H72.6853C72.4813 36.644 72.2713 37.334 72.0553 37.982C71.8393 38.63 71.6113 39.308 71.3713 40.016ZM68.1313 47L72.3073 35.138H73.1353L77.3113 47H76.4473L75.0613 42.932H70.3633L68.9593 47H68.1313ZM82.3039 47.216C81.4399 47.216 80.6719 47.048 79.9999 46.712C79.3279 46.376 78.7579 45.95 78.2899 45.434L78.8299 44.858C79.2619 45.338 79.7779 45.728 80.3779 46.028C80.9779 46.316 81.6199 46.46 82.3039 46.46C83.2159 46.46 83.9359 46.238 84.4639 45.794C84.9919 45.35 85.2559 44.78 85.2559 44.084C85.2559 43.592 85.1599 43.196 84.9679 42.896C84.7759 42.596 84.5179 42.35 84.1939 42.158C83.8819 41.954 83.5279 41.768 83.1319 41.6L81.3319 40.79C80.9959 40.634 80.6359 40.442 80.2519 40.214C79.8799 39.974 79.5619 39.668 79.2979 39.296C79.0459 38.912 78.9199 38.426 78.9199 37.838C78.9199 37.262 79.0699 36.758 79.3699 36.326C79.6699 35.882 80.0779 35.54 80.5939 35.3C81.1219 35.048 81.7159 34.922 82.3759 34.922C83.0839 34.922 83.7199 35.066 84.2839 35.354C84.8479 35.63 85.3099 35.96 85.6699 36.344L85.2019 36.884C84.8539 36.524 84.4459 36.236 83.9779 36.02C83.5099 35.792 82.9759 35.678 82.3759 35.678C81.5959 35.678 80.9599 35.87 80.4679 36.254C79.9879 36.638 79.7479 37.154 79.7479 37.802C79.7479 38.258 79.8559 38.63 80.0719 38.918C80.2999 39.206 80.5699 39.44 80.8819 39.62C81.2059 39.8 81.5119 39.956 81.7999 40.088L83.5999 40.88C84.0439 41.072 84.4519 41.3 84.8239 41.564C85.2079 41.816 85.5139 42.14 85.7419 42.536C85.9819 42.92 86.1019 43.418 86.1019 44.03C86.1019 44.63 85.9459 45.176 85.6339 45.668C85.3219 46.148 84.8779 46.526 84.3019 46.802C83.7379 47.078 83.0719 47.216 82.3039 47.216ZM91.4973 47.216C90.6333 47.216 89.8653 47.048 89.1933 46.712C88.5213 46.376 87.9513 45.95 87.4833 45.434L88.0233 44.858C88.4553 45.338 88.9713 45.728 89.5713 46.028C90.1713 46.316 90.8133 46.46 91.4973 46.46C92.4093 46.46 93.1293 46.238 93.6573 45.794C94.1853 45.35 94.4493 44.78 94.4493 44.084C94.4493 43.592 94.3533 43.196 94.1613 42.896C93.9693 42.596 93.7113 42.35 93.3873 42.158C93.0753 41.954 92.7213 41.768 92.3253 41.6L90.5253 40.79C90.1893 40.634 89.8293 40.442 89.4453 40.214C89.0733 39.974 88.7553 39.668 88.4913 39.296C88.2393 38.912 88.1133 38.426 88.1133 37.838C88.1133 37.262 88.2633 36.758 88.5633 36.326C88.8633 35.882 89.2713 35.54 89.7873 35.3C90.3153 35.048 90.9093 34.922 91.5693 34.922C92.2773 34.922 92.9133 35.066 93.4773 35.354C94.0413 35.63 94.5033 35.96 94.8633 36.344L94.3953 36.884C94.0473 36.524 93.6393 36.236 93.1713 36.02C92.7033 35.792 92.1693 35.678 91.5693 35.678C90.7893 35.678 90.1533 35.87 89.6613 36.254C89.1813 36.638 88.9413 37.154 88.9413 37.802C88.9413 38.258 89.0493 38.63 89.2653 38.918C89.4933 39.206 89.7633 39.44 90.0753 39.62C90.3993 39.8 90.7053 39.956 90.9933 40.088L92.7933 40.88C93.2373 41.072 93.6453 41.3 94.0173 41.564C94.4013 41.816 94.7073 42.14 94.9353 42.536C95.1753 42.92 95.2953 43.418 95.2953 44.03C95.2953 44.63 95.1393 45.176 94.8273 45.668C94.5153 46.148 94.0713 46.526 93.4953 46.802C92.9313 47.078 92.2653 47.216 91.4973 47.216ZM97.788 47V35.138H104.286V35.858H98.616V40.34H103.368V41.06H98.616V46.28H104.466V47H97.788ZM110.148 47.216C109.284 47.216 108.516 47.048 107.844 46.712C107.172 46.376 106.602 45.95 106.134 45.434L106.674 44.858C107.106 45.338 107.622 45.728 108.222 46.028C108.822 46.316 109.464 46.46 110.148 46.46C111.06 46.46 111.78 46.238 112.308 45.794C112.836 45.35 113.1 44.78 113.1 44.084C113.1 43.592 113.004 43.196 112.812 42.896C112.62 42.596 112.362 42.35 112.038 42.158C111.726 41.954 111.372 41.768 110.976 41.6L109.176 40.79C108.84 40.634 108.48 40.442 108.096 40.214C107.724 39.974 107.406 39.668 107.142 39.296C106.89 38.912 106.764 38.426 106.764 37.838C106.764 37.262 106.914 36.758 107.214 36.326C107.514 35.882 107.922 35.54 108.438 35.3C108.966 35.048 109.56 34.922 110.22 34.922C110.928 34.922 111.564 35.066 112.128 35.354C112.692 35.63 113.154 35.96 113.514 36.344L113.046 36.884C112.698 36.524 112.29 36.236 111.822 36.02C111.354 35.792 110.82 35.678 110.22 35.678C109.44 35.678 108.804 35.87 108.312 36.254C107.832 36.638 107.592 37.154 107.592 37.802C107.592 38.258 107.7 38.63 107.916 38.918C108.144 39.206 108.414 39.44 108.726 39.62C109.05 39.8 109.356 39.956 109.644 40.088L111.444 40.88C111.888 41.072 112.296 41.3 112.668 41.564C113.052 41.816 113.358 42.14 113.586 42.536C113.826 42.92 113.946 43.418 113.946 44.03C113.946 44.63 113.79 45.176 113.478 45.668C113.166 46.148 112.722 46.526 112.146 46.802C111.582 47.078 110.916 47.216 110.148 47.216Z" fill="#468C98"/>
<g filter="url(#filter0_d_233_61)">
<path d="M22.0693 29.288C21.0453 29.288 20.0213 29.096 18.9973 28.712C17.9893 28.328 17.0853 27.768 16.2853 27.032L18.3013 24.608C18.8613 25.088 19.4853 25.48 20.1733 25.784C20.8613 26.088 21.5253 26.24 22.1653 26.24C22.9013 26.24 23.4453 26.104 23.7973 25.832C24.1653 25.56 24.3493 25.192 24.3493 24.728C24.3493 24.232 24.1413 23.872 23.7253 23.648C23.3253 23.408 22.7813 23.144 22.0933 22.856L20.0533 21.992C19.5253 21.768 19.0213 21.472 18.5413 21.104C18.0613 20.72 17.6693 20.248 17.3653 19.688C17.0613 19.128 16.9093 18.472 16.9093 17.72C16.9093 16.856 17.1413 16.072 17.6053 15.368C18.0853 14.664 18.7413 14.104 19.5733 13.688C20.4213 13.272 21.3893 13.064 22.4773 13.064C23.3733 13.064 24.2693 13.24 25.1653 13.592C26.0613 13.944 26.8453 14.456 27.5173 15.128L25.7173 17.36C25.2053 16.96 24.6933 16.656 24.1813 16.448C23.6693 16.224 23.1013 16.112 22.4773 16.112C21.8693 16.112 21.3813 16.24 21.0133 16.496C20.6613 16.736 20.4853 17.08 20.4853 17.528C20.4853 18.008 20.7093 18.368 21.1573 18.608C21.6213 18.848 22.1893 19.104 22.8613 19.376L24.8773 20.192C25.8213 20.576 26.5733 21.104 27.1333 21.776C27.6933 22.448 27.9733 23.336 27.9733 24.44C27.9733 25.304 27.7413 26.104 27.2773 26.84C26.8133 27.576 26.1413 28.168 25.2613 28.616C24.3813 29.064 23.3173 29.288 22.0693 29.288ZM36.9893 29.288C35.5813 29.288 34.3413 28.96 33.2693 28.304C32.2133 27.648 31.3813 26.712 30.7733 25.496C30.1813 24.264 29.8853 22.8 29.8853 21.104C29.8853 19.392 30.1813 17.944 30.7733 16.76C31.3813 15.56 32.2133 14.648 33.2693 14.024C34.3413 13.384 35.5813 13.064 36.9893 13.064C38.3973 13.064 39.6293 13.384 40.6853 14.024C41.7573 14.648 42.5893 15.56 43.1813 16.76C43.7893 17.96 44.0933 19.408 44.0933 21.104C44.0933 22.8 43.7893 24.264 43.1813 25.496C42.5893 26.712 41.7573 27.648 40.6853 28.304C39.6293 28.96 38.3973 29.288 36.9893 29.288ZM36.9893 26.24C38.0613 26.24 38.9093 25.776 39.5333 24.848C40.1573 23.92 40.4693 22.672 40.4693 21.104C40.4693 19.536 40.1573 18.312 39.5333 17.432C38.9093 16.552 38.0613 16.112 36.9893 16.112C35.9173 16.112 35.0693 16.552 34.4453 17.432C33.8213 18.312 33.5093 19.536 33.5093 21.104C33.5093 22.672 33.8213 23.92 34.4453 24.848C35.0693 25.776 35.9173 26.24 36.9893 26.24ZM47.0355 29V13.352H52.4115C53.5635 13.352 54.6035 13.512 55.5315 13.832C56.4755 14.136 57.2275 14.656 57.7875 15.392C58.3475 16.128 58.6275 17.128 58.6275 18.392C58.6275 19.608 58.3475 20.608 57.7875 21.392C57.2275 22.176 56.4835 22.76 55.5555 23.144C54.6275 23.512 53.6115 23.696 52.5075 23.696H50.5635V29H47.0355ZM50.5635 20.888H52.2915C54.2115 20.888 55.1715 20.056 55.1715 18.392C55.1715 17.576 54.9155 17 54.4035 16.664C53.8915 16.328 53.1555 16.16 52.1955 16.16H50.5635V20.888ZM61.3324 29V13.352H64.8604V19.376H70.2604V13.352H73.8124V29H70.2604V22.472H64.8604V29H61.3324ZM77.5043 29V13.352H81.0323V29H77.5043ZM84.723 29V13.352H94.515V16.328H88.251V19.472H93.579V22.424H88.251V26.024H94.755V29H84.723ZM98.4954 20.552L97.7274 19.016C98.4474 18.648 98.9834 18.224 99.3354 17.744C99.7034 17.264 99.8874 16.672 99.8874 15.968C99.8394 15.984 99.7674 15.992 99.6714 15.992C99.1594 15.992 98.7194 15.84 98.3514 15.536C97.9994 15.216 97.8234 14.784 97.8234 14.24C97.8234 13.632 97.9914 13.152 98.3274 12.8C98.6794 12.448 99.1274 12.272 99.6714 12.272C100.407 12.272 100.967 12.552 101.351 13.112C101.735 13.656 101.927 14.424 101.927 15.416C101.927 17.72 100.783 19.432 98.4954 20.552ZM109.843 29.288C108.819 29.288 107.795 29.096 106.771 28.712C105.763 28.328 104.859 27.768 104.059 27.032L106.075 24.608C106.635 25.088 107.259 25.48 107.947 25.784C108.635 26.088 109.299 26.24 109.939 26.24C110.675 26.24 111.219 26.104 111.571 25.832C111.939 25.56 112.123 25.192 112.123 24.728C112.123 24.232 111.915 23.872 111.499 23.648C111.099 23.408 110.555 23.144 109.867 22.856L107.827 21.992C107.299 21.768 106.795 21.472 106.315 21.104C105.835 20.72 105.443 20.248 105.139 19.688C104.835 19.128 104.683 18.472 104.683 17.72C104.683 16.856 104.915 16.072 105.379 15.368C105.859 14.664 106.515 14.104 107.347 13.688C108.195 13.272 109.163 13.064 110.251 13.064C111.147 13.064 112.043 13.24 112.939 13.592C113.835 13.944 114.619 14.456 115.291 15.128L113.491 17.36C112.979 16.96 112.467 16.656 111.955 16.448C111.443 16.224 110.875 16.112 110.251 16.112C109.643 16.112 109.155 16.24 108.787 16.496C108.435 16.736 108.259 17.08 108.259 17.528C108.259 18.008 108.483 18.368 108.931 18.608C109.395 18.848 109.963 19.104 110.635 19.376L112.651 20.192C113.595 20.576 114.347 21.104 114.907 21.776C115.467 22.448 115.747 23.336 115.747 24.44C115.747 25.304 115.515 26.104 115.051 26.84C114.587 27.576 113.915 28.168 113.035 28.616C112.155 29.064 111.091 29.288 109.843 29.288Z" fill="#F4F4F4"/>
</g>
<defs>
<filter id="filter0_d_233_61" x="12.2853" y="12.272" width="107.461" height="25.016" filterUnits="userSpaceOnUse" color-interpolation-filters="sRGB">
<feFlood flood-opacity="0" result="BackgroundImageFix"/>
<feColorMatrix in="SourceAlpha" type="matrix" values="0 0 0 0 0 0 0 0 0 0 0 0 0 0 0 0 0 0 127 0" result="hardAlpha"/>
<feOffset dy="4"/>
<feGaussianBlur stdDeviation="2"/>
<feComposite in2="hardAlpha" operator="out"/>
<feColorMatrix type="matrix" values="0 0 0 0 0 0 0 0 0 0 0 0 0 0 0 0 0 0 0.25 0"/>
<feBlend mode="normal" in2="BackgroundImageFix" result="effect1_dropShadow_233_61"/>
<feBlend mode="normal" in="SourceGraphic" in2="effect1_dropShadow_233_61" result="shape"/>
</filter>
<linearGradient id="paint0_linear_233_61" x1="66" y1="7.00003" x2="66" y2="45.5" gradientUnits="userSpaceOnUse">
<stop stop-color="#7B4698"/>
<stop offset="0.860577" stop-color="#121212"/>
</linearGradient>
</defs>
</svg>
